<svg xmlns="http://www.w3.org/2000/svg" width="36.773" height="43.063" viewBox="0 0 36.773 43.063">
    <path id="vimeo" d="M35.975,7.185q-.242,5.243-7.34,14.358-7.34,9.518-12.422,9.518-3.146,0-5.324-5.808l-2.9-10.647Q6.372,8.8,4.517,8.8a11.1,11.1,0,0,0-2.823,1.694L0,8.315Q2.662,5.976,5.243,3.637,8.792.572,10.567.411q4.194-.4,5.162,5.726,1.049,6.614,1.452,8.227,1.21,5.485,2.662,5.485,1.129,0,3.388-3.549t2.42-5.4q.323-3.065-2.42-3.065a6.965,6.965,0,0,0-2.662.565c.967-3.136.629-12.261,2.662-15.944C24.659-10.142,28.923-12.073,31.2-12c3.711.107,7.186,8.288,4.776,19.186Z" transform="translate(0 12.002)" fill="#f4e20b"/>
</svg>
